<!DOCTYPE HTML PUBLIC "-//W3C//DTD HTML 4.01 Transitional//EN">
<HTML>
 <HEAD>
   <TITLE> [Linux-uvc-devel] Recording video and grabbing a frame
   </TITLE>
   <LINK REL="Index" HREF="http://lists.berlios.de/pipermail/linux-uvc-devel/2006-November/index.html" >
   <LINK REL="made" HREF="mailto:linux-uvc-devel%40lists.berlios.de?Subject=Re%3A%20%5BLinux-uvc-devel%5D%20Recording%20video%20and%20grabbing%20a%20frame&In-Reply-To=%3C2eed5f740611030034q3bd2290dpff9d6a33faca6e64%40mail.gmail.com%3E">
   <META NAME="robots" CONTENT="index,nofollow">
   <style type="text/css">
       pre {
           white-space: pre-wrap;       /* css-2.1, curent FF, Opera, Safari */
           }
   </style>
   <META http-equiv="Content-Type" content="text/html; charset=us-ascii">
   <LINK REL="Previous"  HREF="000918.html">
   <LINK REL="Next"  HREF="000933.html">
 </HEAD>
 <BODY BGCOLOR="#ffffff">
   <H1>[Linux-uvc-devel] Recording video and grabbing a frame</H1>
    <B>Vidar Normann</B> 
    <A HREF="mailto:linux-uvc-devel%40lists.berlios.de?Subject=Re%3A%20%5BLinux-uvc-devel%5D%20Recording%20video%20and%20grabbing%20a%20frame&In-Reply-To=%3C2eed5f740611030034q3bd2290dpff9d6a33faca6e64%40mail.gmail.com%3E"
       TITLE="[Linux-uvc-devel] Recording video and grabbing a frame">vidarno at gmail.com
       </A><BR>
    <I>Fri Nov  3 09:34:37 CET 2006</I>
    <P><UL>
        <LI>Previous message: <A HREF="000918.html">[Linux-uvc-devel] Recording video and grabbing a frame
</A></li>
        <LI>Next message: <A HREF="000933.html">[Linux-uvc-devel] Recording video and grabbing a frame
</A></li>
         <LI> <B>Messages sorted by:</B> 
              <a href="date.html#922">[ date ]</a>
              <a href="thread.html#922">[ thread ]</a>
              <a href="subject.html#922">[ subject ]</a>
              <a href="author.html#922">[ author ]</a>
         </LI>
       </UL>
    <HR>  
<!--beginarticle-->
<PRE>Hi Pierre,

I tried the command which worked for you and I still get the same result,
output at the end of this mail. My current version is the newest subversion
version (ahem) but I have also tried with the version packaged with Ubuntu
Edgy Eft (same problem) and the older one from Dapper Drake (no image).
I will try to get the same version you are using, hoping that the bug
affecting
me was not introduced yet at that time. :)

Vidar

ffmpeg -y -vd /dev/video0 -target vcd -t 15 test.avi
FFmpeg version SVN-rUNKNOWN, Copyright (c) 2000-2004 Fabrice Bellard
  configuration:  --enable-gpl --enable-pp --enable-pthreads --enable-vorbis
--enable-libogg --enable-a52 --enable-dts --enable-libgsm --enable-dc1394
--disable-debug --enable-shared --prefix=/usr
  libavutil version: 0d.49.0.0
  libavcodec version: 0d.51.11.0
  libavformat version: 0d.50.5.0
  built on Sep 20 2006 00:08:26, gcc: 4.1.2 20060906 (prerelease) (Ubuntu
4.1.1-13ubuntu2)
Assuming PAL for target.
[video4linux2 @ 0x2b5aa0742400][4]Capabilities: 4000001
The V4L2 driver changed the video from 352x288 to 1024x576
Input #0, video4linux2, from '':
  Duration: N/A, bitrate: N/A
  Stream #0.0: Video: rawvideo, yuv422, 1024x576, 235929 kb/s, 25.00 fps(r)
Input #1, audio_device, from '':
  Duration: N/A, bitrate: N/A
  Stream #1.0: Audio: pcm_s16le, 44100 Hz, mono, 705 kb/s
PIX_FMT_YUV420P will be used as an intermediate format for rescaling
Output #0, vcd, to 'test.avi':
  Stream #0.0: Video: mpeg1video, yuv420p, 352x288, q=2-31, 1150 kb/s,
25.00fps(c)
  Stream #0.1: Audio: mp2, 44100 Hz, mono, 224 kb/s
Stream mapping:
  Stream #0.0 -&gt; #0.0
  Stream #1.0 -&gt; #0.1
Press [q] to stop encoding
frame=  535 q=2.0 Lsize=    3030kB time=21.4 bitrate=1162.0kbits/s
video:1031kB audio:0kB global headers:0kB muxing overhead 193.764138%



On 11/3/06, pierre gronlier &lt;<A HREF="https://lists.berlios.de/mailman/listinfo/linux-uvc-devel">pierre.gronlier at gmail.com</A>&gt; wrote:
&gt;<i>
</I>&gt;<i> Hi Vidar,
</I>&gt;<i>
</I>&gt;<i> ffmpeg -y -vd /dev/video0 -target vcd -t 15 test.avi
</I>&gt;<i> is working perfectly at home and record 15 sec.
</I>&gt;<i> I'm using ffmpeg-0.4.9_p20060530. (cvs version)
</I>&gt;<i> What is your version ?
</I>&gt;<i>
</I>&gt;<i> Pierre
</I>&gt;<i>
</I>-------------- next part --------------
An HTML attachment was scrubbed...
URL: &lt;<A HREF="https://lists.berlios.de/pipermail/linux-uvc-devel/attachments/20061103/ecb61cb4/attachment.html">https://lists.berlios.de/pipermail/linux-uvc-devel/attachments/20061103/ecb61cb4/attachment.html</A>&gt;
</PRE>

<!--endarticle-->
    <HR>
    <P><UL>
        <!--threads-->
	<LI>Previous message: <A HREF="000918.html">[Linux-uvc-devel] Recording video and grabbing a frame
</A></li>
	<LI>Next message: <A HREF="000933.html">[Linux-uvc-devel] Recording video and grabbing a frame
</A></li>
         <LI> <B>Messages sorted by:</B> 
              <a href="date.html#922">[ date ]</a>
              <a href="thread.html#922">[ thread ]</a>
              <a href="subject.html#922">[ subject ]</a>
              <a href="author.html#922">[ author ]</a>
         </LI>
       </UL>

<hr>
<a href="https://lists.berlios.de/mailman/listinfo/linux-uvc-devel">More information about the Linux-uvc-devel
mailing list</a><br>
</body></html>
